# xmcd CD database file
#
# Track frame offsets:
#	150
#	43715
#	83690
#	125182
#	166935
#
# Disc length: 2724 seconds
#
# Revision: 0
# Processed by: cddbd v1.5.1PL0 Copyright (c) Steve Scherf et al.
# Submitted via: CDex 1.51
#
DISCID=3a0aa205
DTITLE=Midori Takahashi - プラス思考
DYEAR=1900
DGENRE=Meditative
TTITLE0=Shimmering water
TTITLE1=Motion is…
TTITLE2=Green Field
TTITLE3=Breath of wind
TTITLE4=I will
EXTD=
EXTT0=
EXTT1=
EXTT2=
EXTT3=
EXTT4=
PLAYORDER=
